<svg width="992" height="106" viewBox="0 0 992 106" fill="none" xmlns="http://www.w3.org/2000/svg">
<g filter="url(#filter0_i_82_12203)">
<path d="M0 90C0 98.8365 7.16344 106 16 106H976C984.837 106 992 98.8366 992 90V37.3493C992 28.5127 984.837 21.3493 976 21.3493H819.25C817.663 21.3493 816.085 21.1133 814.568 20.649L749.378 0.700302C747.86 0.236015 746.282 0 744.696 0H249.629C248.216 0 246.809 0.187141 245.445 0.556526L170.738 20.7928C169.374 21.1621 167.967 21.3493 166.554 21.3493H16C7.16344 21.3493 0 28.5127 0 37.3493V90Z" fill="white"/>
</g>
<path d="M747.037 8.35015L749.378 0.700302L747.037 8.35014C746.278 8.11801 745.489 8 744.696 8H249.629C248.922 8 248.219 8.09357 247.537 8.27827L172.829 28.5145C170.784 29.0686 168.674 29.3493 166.554 29.3493H16C11.5817 29.3493 8 32.931 8 37.3493V90C8 94.4183 11.5817 98 16 98H976C980.418 98 984 94.4183 984 90V37.3493C984 32.931 980.418 29.3493 976 29.3493H819.25C816.87 29.3493 814.503 28.9953 812.227 28.2988L747.037 8.35015Z" stroke="#0074BD" stroke-width="16"/>
<defs>
<filter id="filter0_i_82_12203" x="0" y="0" width="995" height="110" filterUnits="userSpaceOnUse" color-interpolation-filters="sRGB">
<feFlood flood-opacity="0" result="BackgroundImageFix"/>
<feBlend mode="normal" in="SourceGraphic" in2="BackgroundImageFix" result="shape"/>
<feColorMatrix in="SourceAlpha" type="matrix" values="0 0 0 0 0 0 0 0 0 0 0 0 0 0 0 0 0 0 127 0" result="hardAlpha"/>
<feOffset dx="3" dy="4"/>
<feGaussianBlur stdDeviation="2"/>
<feComposite in2="hardAlpha" operator="arithmetic" k2="-1" k3="1"/>
<feColorMatrix type="matrix" values="0 0 0 0 0 0 0 0 0 0 0 0 0 0 0 0 0 0 0.25 0"/>
<feBlend mode="normal" in2="shape" result="effect1_innerShadow_82_12203"/>
</filter>
</defs>
</svg>
